<svg width="384" height="84" viewBox="0 0 384 84" fill="none" xmlns="http://www.w3.org/2000/svg">
<path d="M383.156 21.9153C383.396 24.1933 382.404 26.6129 380.149 29.1558C377.895 31.6976 374.422 34.3097 369.826 36.9478C360.638 42.222 347.068 47.5409 330.101 52.598C296.176 62.7098 248.768 71.7467 195.923 77.3052C143.079 82.8637 94.8283 83.8885 59.5414 81.0568C41.8937 79.6405 27.514 77.2616 17.4296 74.0145C12.3856 72.3904 8.44509 70.5581 5.71114 68.541C2.97608 66.523 1.50275 64.3627 1.26314 62.0847C1.02353 59.8067 2.01511 57.387 4.27045 54.8442C6.52486 52.3024 9.99785 49.6903 14.5936 47.0522C23.7817 41.7779 37.3517 36.4591 54.3184 31.402C88.2439 21.2901 135.651 12.2532 188.496 6.69474C241.341 1.13627 289.591 0.111423 324.878 2.94318C342.526 4.3594 356.905 6.73836 366.99 9.98544C372.034 11.6096 375.974 13.4419 378.708 15.459C381.443 17.4769 382.917 19.6373 383.156 21.9153Z" stroke="#DA4848"/>
</svg>
